<?xml version="1.0" encoding="utf-8"?>
<svg xmlns="http://www.w3.org/2000/svg" fill="none" height="20" viewBox="0 0 46 20" width="46">
<g clip-path="url(#clip0_1086_364)">
<rect fill="white" height="20" rx="4" width="46"/>
<path d="M46.0009 -0.0082016H0V20.0056H46.0009V-0.0082016Z" fill="url(#paint0_linear_1086_364)"/>
<path d="M13.2936 23.9443C0.303049 17.2523 0.858508 22.0997 -5.65454 22.1659L-1.78283 -4.7429C2.54736 -7.54156 3.42068 -4.92255 16.1256 -0.449409L37.5637 23.2379C32.3833 24.3084 26.2842 30.6364 13.2936 23.9443Z" fill="url(#paint1_linear_1086_364)" fill-opacity="0.6"/>
<path d="M31.226 -1.11839L-1.57104 -0.672091L-0.827356 13.6732L8.76049 14.0571C14.5697 13.0597 20.463 14.8591 23.8308 18.818L29.6986 25.716C30.5955 26.7719 31.7977 27.6357 33.2012 28.2328C34.6047 28.8299 36.1673 29.1422 37.754 29.1428H67.1682V18.2867C67.1682 16.1878 64.6548 14.6902 62.1787 15.3136L47.8616 19.6294C46.4697 19.8727 45.0181 19.7536 43.7154 19.2892C42.4128 18.8247 41.3264 18.0389 40.6123 17.0448L31.226 -1.11839Z" fill="url(#paint2_linear_1086_364)"/>
<ellipse cx="19.431" cy="9.99047" fill="url(#paint3_radial_1086_364)" rx="8.42879" ry="7.95239"/>
<ellipse cx="28.4625" cy="16.2117" fill="url(#paint4_radial_1086_364)" fill-opacity="0.7" rx="15.8069" ry="10.0857"/>
<ellipse fill="url(#paint5_radial_1086_364)" fill-opacity="0.7" rx="10.296" ry="5.94819" transform="matrix(0.97064 0.240539 -0.35583 0.934551 29.7128 17.8896)"/>
<path d="M23.9155 -0.453896L-0.110107 -0.126963L0.434684 10.3817L7.45829 10.663C11.7138 9.9323 16.031 11.2505 18.4981 14.1506L22.7966 19.2037C23.4536 19.9772 24.3342 20.61 25.3624 21.0474C26.3905 21.4848 27.5352 21.7136 28.6975 21.714H50.245L52.5133 8.2139C52.5133 6.67634 50.6721 5.57923 48.8582 6.03589L47.805 -2.27938C46.7854 -2.10116 45.722 -2.18844 44.7677 -2.52866C43.8135 -2.86888 43.0176 -3.44452 42.4945 -4.17276L23.9155 -0.453896Z" fill="url(#paint6_linear_1086_364)"/>
</g>
<path d="M12.7124 7.94953C11.9625 7.67011 11.2371 7.53474 10.3236 7.72652C9.6104 7.87577 9.03724 8.1604 8.66097 8.87022C8.82635 9.00385 8.97511 9.13055 9.12037 9.25637C9.35926 9.46203 9.6069 9.67376 9.93854 9.9202C10.2011 9.5488 10.6596 9.13055 11.1514 9.121C11.7219 9.10972 12.2688 9.42124 12.3589 9.87768C12.3957 10.0669 12.4202 10.8487 12.4202 10.8487L12.1209 10.912C12.0617 10.934 11.9964 10.934 11.9371 10.912L11.8899 10.8938L11.8514 10.8791C11.2369 10.6435 10.5851 10.5177 9.92629 10.5077C9.70477 10.5076 9.48358 10.5247 9.26475 10.5589C8.59272 10.6639 7.7938 11.0405 7.8078 12.2423C7.81305 12.6996 7.90931 13.0424 8.11232 13.3209C8.29094 13.5751 8.52989 13.7817 8.80809 13.9226C9.0863 14.0635 9.39519 14.1343 9.70753 14.1288C10.4708 14.152 11.2159 13.8949 11.7998 13.4068C11.812 13.3973 11.9511 13.2767 11.9914 13.2454L12.4036 12.9287V14.1201H14.123V9.95491C14.1239 9.01166 13.6059 8.28275 12.7124 7.94953ZM12.1813 11.864C11.8138 12.5165 11.2144 12.8853 10.5248 12.8853C10.4959 12.8853 10.4662 12.8853 10.4373 12.8853C10.2923 12.8824 10.1479 12.864 10.0068 12.8307C9.49139 12.6962 9.19825 12.2848 9.21925 11.7312L9.22975 11.4891H12.3913L12.1813 11.864Z" fill="black"/>
<path d="M30.6735 7.94953C29.9236 7.67011 29.1981 7.53474 28.2855 7.72652C27.5714 7.87577 26.9983 8.1604 26.6229 8.87022C26.7883 9.00385 26.937 9.13055 27.0823 9.25637C27.322 9.46203 27.5688 9.67376 27.9005 9.9202C28.163 9.5488 28.6224 9.13055 29.1133 9.121C29.6847 9.10972 30.2307 9.42124 30.3208 9.87768C30.3576 10.0669 30.3821 10.8487 30.3821 10.8487L30.0837 10.912C30.0244 10.934 29.9592 10.934 29.8999 10.912C29.8851 10.9068 29.8684 10.9008 29.8527 10.8938L29.8133 10.8791C29.1988 10.6435 28.547 10.5177 27.8882 10.5077C27.6667 10.5076 27.4455 10.5247 27.2267 10.5589C26.5546 10.6639 25.7557 11.0405 25.7697 12.2423C25.775 12.6996 25.8721 13.0424 26.0742 13.3209C26.2528 13.5751 26.4918 13.7817 26.77 13.9226C27.0482 14.0635 27.3571 14.1343 27.6694 14.1288C28.433 14.152 29.1783 13.8949 29.7626 13.4068C29.7739 13.3973 29.9139 13.2767 29.9533 13.2454L30.3655 12.9287V14.1201H32.0849V9.95491C32.0849 9.01166 31.5669 8.28275 30.6735 7.94953ZM30.1423 11.864C29.7757 12.5165 29.1754 12.8853 28.4867 12.8853C28.457 12.8853 28.4272 12.8853 28.3992 12.8853C28.2545 12.8824 28.1104 12.864 27.9696 12.8307C27.4533 12.6962 27.1602 12.2848 27.182 11.7312L27.1925 11.4891H30.3532L30.1423 11.864Z" fill="black"/>
<path d="M42.4209 7.94953C41.671 7.67011 40.9456 7.53474 40.0321 7.72652C39.3189 7.87577 38.7457 8.1604 38.3695 8.87022C38.5349 9.00385 38.6836 9.13055 38.8289 9.25637C39.0678 9.46203 39.3154 9.67376 39.647 9.9202C39.9095 9.5488 40.3681 9.13055 40.8599 9.121C41.4313 9.10972 41.9773 9.42124 42.0674 9.87768C42.1042 10.0669 42.1287 10.8487 42.1287 10.8487L41.8294 10.912C41.7704 10.9338 41.7055 10.9338 41.6465 10.912C41.6316 10.9068 41.615 10.9008 41.5993 10.8938L41.5599 10.8791C40.9454 10.6435 40.2936 10.5177 39.6348 10.5077C39.4133 10.5076 39.1921 10.5247 38.9733 10.5589C38.3012 10.6639 37.5023 11.0405 37.5163 12.2423C37.5215 12.6996 37.6178 13.0424 37.8208 13.3209C37.9994 13.5751 38.2384 13.7817 38.5166 13.9226C38.7948 14.0635 39.1037 14.1343 39.416 14.1288C40.1796 14.152 40.9249 13.8949 41.5091 13.4068C41.5205 13.3973 41.6605 13.2767 41.6999 13.2454L42.112 12.9287V14.1201H43.8315V9.95491C43.8324 9.01166 43.3144 8.28275 42.4209 7.94953ZM41.8898 11.864C41.5223 12.5165 40.9229 12.8853 40.2333 12.8853C40.2044 12.8853 40.1747 12.8853 40.1458 12.8853C40.0008 12.8824 39.8564 12.864 39.7153 12.8307C39.1999 12.6962 38.9067 12.2848 38.9277 11.7312L38.9382 11.4891H42.098L41.8898 11.864Z" fill="black"/>
<path d="M36.7956 8.17254C36.239 8.1977 35.8426 8.43894 35.5801 8.9136C35.5513 8.96566 35.3657 9.32665 35.3657 9.32665L34.9536 9.23206V9.03075V8.25671H33.291V14.1331H34.958V13.5995C34.958 13.0464 34.958 12.4942 34.958 11.9429V11.8379C34.958 11.6427 34.9449 11.4405 34.958 11.2383C34.9823 10.8845 35.1302 10.5502 35.3764 10.293C35.6225 10.0357 35.9514 9.87168 36.3064 9.82908C36.5392 9.79611 37.1246 9.7935 37.1885 9.79263V8.16906C37.0493 8.16733 36.9216 8.16646 36.7956 8.17254Z" fill="black"/>
<path d="M6.5205 12.7604C6.37406 12.758 6.22793 12.7464 6.08297 12.7256C5.64545 12.6545 5.36631 12.441 5.2473 12.0896C5.19391 11.9427 5.16438 11.7883 5.1598 11.6323V9.00818L5.41794 8.9969C5.97009 8.97 6.5555 8.93008 7.11115 8.77736L6.75676 7.57899L5.1598 7.81415V6.05H3.27407V7.81415H2V9.0238H3.27407C3.27407 9.0238 3.27407 11.5186 3.28457 12.1555C3.28564 12.5445 3.3989 12.9251 3.61096 13.2524C3.86473 13.6351 4.23312 13.8746 4.77215 14.0065C5.35231 14.1479 5.94034 14.141 6.56162 14.134H6.71038V12.7673H6.63863L6.5205 12.7604Z" fill="black"/>
<path d="M20.9596 10.8227C20.9596 10.2291 21.3621 9.76054 21.909 9.71021C22.5688 9.6486 23.0326 9.97575 23.1507 10.584C23.1684 10.691 23.1757 10.7994 23.1726 10.9077C23.1726 11.7902 23.1726 12.6649 23.1726 13.5405V14.1254H24.8352V13.2151C24.8352 12.1937 24.8352 11.1724 24.8352 10.151C24.837 9.95967 24.8212 9.76855 24.7879 9.58005C24.6497 8.85113 24.2559 8.40684 23.5917 8.21941C22.8725 8.01982 21.6666 8.16908 21.1066 9.1401L20.8511 9.64687C20.7041 8.91969 20.2849 8.39296 19.6164 8.20292C18.8971 8.00334 17.8121 8.17081 17.2538 9.14183L17.0035 9.57571V8.25585H15.2639V14.1332H16.9965C16.9965 14.1332 16.9965 11.8032 16.9965 10.945C16.9964 10.8351 17.0034 10.7252 17.0175 10.6161C17.0375 10.4101 17.1215 10.2154 17.2578 10.0587C17.3942 9.902 17.5762 9.79116 17.7788 9.74145C18.2531 9.61997 18.7457 9.77095 19.0039 10.1189C19.1567 10.3437 19.2313 10.6118 19.2165 10.8825C19.2165 11.7121 19.2165 14.1288 19.2165 14.1288H20.9596V10.8227Z" fill="black"/>
<defs>
<linearGradient gradientUnits="userSpaceOnUse" id="paint0_linear_1086_364" x1="0.438051" x2="42.4984" y1="17.7966" y2="-4.54898">
<stop offset="0.01" stop-color="#AAE1FF"/>
<stop offset="0.427083" stop-color="#F9BD9A"/>
<stop offset="0.51" stop-color="#FFBC8C"/>
<stop offset="0.640625" stop-color="#FFBE92"/>
<stop offset="0.75" stop-color="#F8BC8B"/>
<stop offset="0.88" stop-color="#F29F7E"/>
<stop offset="1" stop-color="#F0826B"/>
</linearGradient>
<linearGradient gradientUnits="userSpaceOnUse" id="paint1_linear_1086_364" x1="24.1005" x2="-3.19813" y1="8.25674" y2="35.5001">
<stop stop-color="white" stop-opacity="0"/>
<stop offset="0.463182" stop-color="#CAEDFF"/>
<stop offset="1" stop-color="#98D6F7" stop-opacity="0"/>
</linearGradient>
<linearGradient gradientUnits="userSpaceOnUse" id="paint2_linear_1086_364" x1="9.9365" x2="22.0304" y1="0.460285" y2="29.6423">
<stop offset="0.01" stop-color="#FFE08B"/>
<stop offset="0.130208" stop-color="#FFE294" stop-opacity="0.590397"/>
<stop offset="0.303475" stop-color="#FFD972" stop-opacity="0"/>
</linearGradient>
<radialGradient cx="0" cy="0" gradientTransform="translate(19.431 9.99047) rotate(90) scale(7.95239 8.42879)" gradientUnits="userSpaceOnUse" id="paint3_radial_1086_364" r="1">
<stop stop-color="#F8B483" stop-opacity="0.57"/>
<stop offset="1" stop-color="#F8B483" stop-opacity="0"/>
</radialGradient>
<radialGradient cx="0" cy="0" gradientTransform="translate(28.4625 16.2117) rotate(90) scale(10.0857 15.8069)" gradientUnits="userSpaceOnUse" id="paint4_radial_1086_364" r="1">
<stop stop-color="#EB84A4"/>
<stop offset="0.755208" stop-color="#EB84A4" stop-opacity="0"/>
</radialGradient>
<radialGradient cx="0" cy="0" gradientTransform="translate(10.296 5.94819) rotate(90) scale(5.94819 10.296)" gradientUnits="userSpaceOnUse" id="paint5_radial_1086_364" r="1">
<stop stop-color="#EB84A4"/>
<stop offset="0.755208" stop-color="#EB84A4" stop-opacity="0"/>
</radialGradient>
<linearGradient gradientUnits="userSpaceOnUse" id="paint6_linear_1086_364" x1="20.4031" x2="40.2701" y1="10.2389" y2="25.1455">
<stop offset="0.326812" stop-color="#EB84A4" stop-opacity="0"/>
<stop offset="1" stop-color="#9881BB"/>
</linearGradient>
<clipPath id="clip0_1086_364">
<rect fill="white" height="20" rx="4" width="46"/>
</clipPath>
</defs>
</svg>